<mxfile host="app.diagrams.net" modified="2021-12-23T10:16:08.349Z" agent="5.0 (Windows NT 10.0; Win64; x64) AppleWebKit/537.36 (KHTML, like Gecko) Chrome/96.0.4664.93 Safari/537.36" etag="45YRiE-m4-GKQPrrv-3-" version="16.0.3" type="github">
  <diagram id="iv6HI-_gdqKJJMJm8jD1" name="Page-1">
    <mxGraphModel dx="1038" dy="547" grid="1" gridSize="10" guides="1" tooltips="1" connect="1" arrows="1" fold="1" page="1" pageScale="1" pageWidth="827" pageHeight="1169" math="0" shadow="0">
      <root>
        <mxCell id="0" />
        <mxCell id="1" parent="0" />
        <mxCell id="eqHKp-PGuizW-vQHrf_t-1" value="" style="whiteSpace=wrap;html=1;aspect=fixed;" vertex="1" parent="1">
          <mxGeometry x="200" y="100" width="390" height="390" as="geometry" />
        </mxCell>
        <mxCell id="eqHKp-PGuizW-vQHrf_t-3" value="摄影课程推荐" style="ellipse;whiteSpace=wrap;html=1;" vertex="1" parent="1">
          <mxGeometry x="310" y="110" width="90" height="50" as="geometry" />
        </mxCell>
        <mxCell id="eqHKp-PGuizW-vQHrf_t-4" value="摄影课程" style="ellipse;whiteSpace=wrap;html=1;" vertex="1" parent="1">
          <mxGeometry x="310" y="200" width="90" height="50" as="geometry" />
        </mxCell>
        <mxCell id="eqHKp-PGuizW-vQHrf_t-5" value="课程反馈" style="ellipse;whiteSpace=wrap;html=1;" vertex="1" parent="1">
          <mxGeometry x="270" y="300" width="90" height="50" as="geometry" />
        </mxCell>
        <mxCell id="eqHKp-PGuizW-vQHrf_t-6" value="系统数据库" style="ellipse;whiteSpace=wrap;html=1;" vertex="1" parent="1">
          <mxGeometry x="440" y="390" width="90" height="50" as="geometry" />
        </mxCell>
        <mxCell id="eqHKp-PGuizW-vQHrf_t-7" value="用户" style="shape=umlActor;verticalLabelPosition=bottom;verticalAlign=top;html=1;" vertex="1" parent="1">
          <mxGeometry x="90" y="130" width="30" height="60" as="geometry" />
        </mxCell>
        <mxCell id="eqHKp-PGuizW-vQHrf_t-13" value="系统" style="shape=umlActor;verticalLabelPosition=bottom;verticalAlign=top;html=1;" vertex="1" parent="1">
          <mxGeometry x="690" y="330" width="30" height="60" as="geometry" />
        </mxCell>
        <mxCell id="eqHKp-PGuizW-vQHrf_t-16" value="摄影机构" style="shape=umlActor;verticalLabelPosition=bottom;verticalAlign=top;html=1;" vertex="1" parent="1">
          <mxGeometry x="680" y="150" width="30" height="60" as="geometry" />
        </mxCell>
        <mxCell id="eqHKp-PGuizW-vQHrf_t-21" value="" style="endArrow=none;html=1;rounded=0;entryX=0.5;entryY=0.5;entryDx=0;entryDy=0;entryPerimeter=0;startArrow=none;" edge="1" parent="1" source="eqHKp-PGuizW-vQHrf_t-31" target="eqHKp-PGuizW-vQHrf_t-7">
          <mxGeometry width="50" height="50" relative="1" as="geometry">
            <mxPoint x="130" y="260" as="sourcePoint" />
            <mxPoint x="180" y="210" as="targetPoint" />
          </mxGeometry>
        </mxCell>
        <mxCell id="eqHKp-PGuizW-vQHrf_t-22" value="" style="endArrow=none;html=1;rounded=0;entryX=0.5;entryY=0.5;entryDx=0;entryDy=0;entryPerimeter=0;exitX=0;exitY=0.5;exitDx=0;exitDy=0;" edge="1" parent="1" source="eqHKp-PGuizW-vQHrf_t-5" target="eqHKp-PGuizW-vQHrf_t-7">
          <mxGeometry width="50" height="50" relative="1" as="geometry">
            <mxPoint x="30" y="340" as="sourcePoint" />
            <mxPoint x="80" y="290" as="targetPoint" />
          </mxGeometry>
        </mxCell>
        <mxCell id="eqHKp-PGuizW-vQHrf_t-23" value="" style="endArrow=none;html=1;rounded=0;entryX=0.5;entryY=0.5;entryDx=0;entryDy=0;entryPerimeter=0;startArrow=none;" edge="1" parent="1" source="eqHKp-PGuizW-vQHrf_t-33" target="eqHKp-PGuizW-vQHrf_t-7">
          <mxGeometry width="50" height="50" relative="1" as="geometry">
            <mxPoint x="130" y="300" as="sourcePoint" />
            <mxPoint x="180" y="250" as="targetPoint" />
          </mxGeometry>
        </mxCell>
        <mxCell id="eqHKp-PGuizW-vQHrf_t-24" value="" style="endArrow=none;html=1;rounded=0;entryX=0.5;entryY=0.5;entryDx=0;entryDy=0;entryPerimeter=0;exitX=1;exitY=0.5;exitDx=0;exitDy=0;startArrow=none;" edge="1" parent="1" source="eqHKp-PGuizW-vQHrf_t-38" target="eqHKp-PGuizW-vQHrf_t-13">
          <mxGeometry width="50" height="50" relative="1" as="geometry">
            <mxPoint x="620" y="430" as="sourcePoint" />
            <mxPoint x="670" y="380" as="targetPoint" />
          </mxGeometry>
        </mxCell>
        <mxCell id="eqHKp-PGuizW-vQHrf_t-25" value="" style="endArrow=none;html=1;rounded=0;entryX=0.5;entryY=0.5;entryDx=0;entryDy=0;entryPerimeter=0;exitX=1;exitY=0.5;exitDx=0;exitDy=0;startArrow=none;" edge="1" parent="1" source="eqHKp-PGuizW-vQHrf_t-50" target="eqHKp-PGuizW-vQHrf_t-13">
          <mxGeometry width="50" height="50" relative="1" as="geometry">
            <mxPoint x="510" y="360" as="sourcePoint" />
            <mxPoint x="560" y="310" as="targetPoint" />
          </mxGeometry>
        </mxCell>
        <mxCell id="eqHKp-PGuizW-vQHrf_t-27" value="" style="endArrow=none;html=1;rounded=0;entryX=0.5;entryY=0.5;entryDx=0;entryDy=0;entryPerimeter=0;exitX=1;exitY=0.5;exitDx=0;exitDy=0;startArrow=none;" edge="1" parent="1" source="eqHKp-PGuizW-vQHrf_t-40" target="eqHKp-PGuizW-vQHrf_t-16">
          <mxGeometry width="50" height="50" relative="1" as="geometry">
            <mxPoint x="610" y="310" as="sourcePoint" />
            <mxPoint x="660" y="260" as="targetPoint" />
          </mxGeometry>
        </mxCell>
        <mxCell id="eqHKp-PGuizW-vQHrf_t-28" value="" style="endArrow=none;html=1;rounded=0;entryX=0.5;entryY=0.5;entryDx=0;entryDy=0;entryPerimeter=0;" edge="1" parent="1" source="eqHKp-PGuizW-vQHrf_t-5" target="eqHKp-PGuizW-vQHrf_t-16">
          <mxGeometry width="50" height="50" relative="1" as="geometry">
            <mxPoint x="650" y="330" as="sourcePoint" />
            <mxPoint x="700" y="280" as="targetPoint" />
          </mxGeometry>
        </mxCell>
        <mxCell id="eqHKp-PGuizW-vQHrf_t-29" value="" style="endArrow=none;html=1;rounded=0;entryX=1;entryY=0.5;entryDx=0;entryDy=0;" edge="1" parent="1" target="eqHKp-PGuizW-vQHrf_t-3">
          <mxGeometry width="50" height="50" relative="1" as="geometry">
            <mxPoint x="700" y="360" as="sourcePoint" />
            <mxPoint x="690" y="270" as="targetPoint" />
          </mxGeometry>
        </mxCell>
        <mxCell id="eqHKp-PGuizW-vQHrf_t-30" value="" style="endArrow=none;html=1;rounded=0;entryX=1;entryY=1;entryDx=0;entryDy=0;exitX=0.5;exitY=0.5;exitDx=0;exitDy=0;exitPerimeter=0;startArrow=none;" edge="1" parent="1" source="eqHKp-PGuizW-vQHrf_t-48" target="eqHKp-PGuizW-vQHrf_t-4">
          <mxGeometry width="50" height="50" relative="1" as="geometry">
            <mxPoint x="420" y="320" as="sourcePoint" />
            <mxPoint x="470" y="270" as="targetPoint" />
          </mxGeometry>
        </mxCell>
        <mxCell id="eqHKp-PGuizW-vQHrf_t-31" value="查看" style="text;html=1;strokeColor=none;fillColor=none;align=center;verticalAlign=middle;whiteSpace=wrap;rounded=0;" vertex="1" parent="1">
          <mxGeometry x="170" y="130" width="60" height="30" as="geometry" />
        </mxCell>
        <mxCell id="eqHKp-PGuizW-vQHrf_t-32" value="" style="endArrow=none;html=1;rounded=0;entryX=0.5;entryY=0.5;entryDx=0;entryDy=0;entryPerimeter=0;" edge="1" parent="1" source="eqHKp-PGuizW-vQHrf_t-3" target="eqHKp-PGuizW-vQHrf_t-31">
          <mxGeometry width="50" height="50" relative="1" as="geometry">
            <mxPoint x="310.71175042118375" y="139.4288249578816" as="sourcePoint" />
            <mxPoint x="105" y="160" as="targetPoint" />
          </mxGeometry>
        </mxCell>
        <mxCell id="eqHKp-PGuizW-vQHrf_t-33" value="购买" style="text;html=1;strokeColor=none;fillColor=none;align=center;verticalAlign=middle;whiteSpace=wrap;rounded=0;" vertex="1" parent="1">
          <mxGeometry x="210" y="180" width="60" height="30" as="geometry" />
        </mxCell>
        <mxCell id="eqHKp-PGuizW-vQHrf_t-34" value="" style="endArrow=none;html=1;rounded=0;entryX=0.5;entryY=0.5;entryDx=0;entryDy=0;entryPerimeter=0;" edge="1" parent="1" source="eqHKp-PGuizW-vQHrf_t-4" target="eqHKp-PGuizW-vQHrf_t-33">
          <mxGeometry width="50" height="50" relative="1" as="geometry">
            <mxPoint x="314.24260806219536" y="214.40307809617082" as="sourcePoint" />
            <mxPoint x="105" y="160" as="targetPoint" />
          </mxGeometry>
        </mxCell>
        <mxCell id="eqHKp-PGuizW-vQHrf_t-36" value="评价" style="text;html=1;strokeColor=none;fillColor=none;align=center;verticalAlign=middle;whiteSpace=wrap;rounded=0;" vertex="1" parent="1">
          <mxGeometry x="200" y="260" width="60" height="30" as="geometry" />
        </mxCell>
        <mxCell id="eqHKp-PGuizW-vQHrf_t-38" value="维护、更新" style="text;html=1;strokeColor=none;fillColor=none;align=center;verticalAlign=middle;whiteSpace=wrap;rounded=0;" vertex="1" parent="1">
          <mxGeometry x="550" y="385" width="70" height="30" as="geometry" />
        </mxCell>
        <mxCell id="eqHKp-PGuizW-vQHrf_t-39" value="" style="endArrow=none;html=1;rounded=0;entryX=0.5;entryY=0.5;entryDx=0;entryDy=0;entryPerimeter=0;exitX=1;exitY=0.5;exitDx=0;exitDy=0;" edge="1" parent="1" source="eqHKp-PGuizW-vQHrf_t-6" target="eqHKp-PGuizW-vQHrf_t-38">
          <mxGeometry width="50" height="50" relative="1" as="geometry">
            <mxPoint x="530" y="415" as="sourcePoint" />
            <mxPoint x="705" y="360" as="targetPoint" />
          </mxGeometry>
        </mxCell>
        <mxCell id="eqHKp-PGuizW-vQHrf_t-40" value="上传、下架" style="text;html=1;strokeColor=none;fillColor=none;align=center;verticalAlign=middle;whiteSpace=wrap;rounded=0;" vertex="1" parent="1">
          <mxGeometry x="500" y="185" width="60" height="30" as="geometry" />
        </mxCell>
        <mxCell id="eqHKp-PGuizW-vQHrf_t-41" value="" style="endArrow=none;html=1;rounded=0;entryX=0.5;entryY=0.5;entryDx=0;entryDy=0;entryPerimeter=0;exitX=1;exitY=0.5;exitDx=0;exitDy=0;" edge="1" parent="1" source="eqHKp-PGuizW-vQHrf_t-4" target="eqHKp-PGuizW-vQHrf_t-40">
          <mxGeometry width="50" height="50" relative="1" as="geometry">
            <mxPoint x="400" y="225" as="sourcePoint" />
            <mxPoint x="695" y="180" as="targetPoint" />
          </mxGeometry>
        </mxCell>
        <mxCell id="eqHKp-PGuizW-vQHrf_t-44" value="更新、维护" style="text;html=1;strokeColor=none;fillColor=none;align=center;verticalAlign=middle;whiteSpace=wrap;rounded=0;" vertex="1" parent="1">
          <mxGeometry x="600" y="280" width="60" height="30" as="geometry" />
        </mxCell>
        <mxCell id="eqHKp-PGuizW-vQHrf_t-45" value="查看" style="text;html=1;strokeColor=none;fillColor=none;align=center;verticalAlign=middle;whiteSpace=wrap;rounded=0;" vertex="1" parent="1">
          <mxGeometry x="470" y="240" width="60" height="30" as="geometry" />
        </mxCell>
        <mxCell id="eqHKp-PGuizW-vQHrf_t-48" value="审核" style="text;html=1;strokeColor=none;fillColor=none;align=center;verticalAlign=middle;whiteSpace=wrap;rounded=0;" vertex="1" parent="1">
          <mxGeometry x="510" y="285" width="60" height="30" as="geometry" />
        </mxCell>
        <mxCell id="eqHKp-PGuizW-vQHrf_t-49" value="" style="endArrow=none;html=1;rounded=0;entryX=1;entryY=1;entryDx=0;entryDy=0;exitX=0.5;exitY=0.5;exitDx=0;exitDy=0;exitPerimeter=0;" edge="1" parent="1" source="eqHKp-PGuizW-vQHrf_t-13" target="eqHKp-PGuizW-vQHrf_t-48">
          <mxGeometry width="50" height="50" relative="1" as="geometry">
            <mxPoint x="705" y="360" as="sourcePoint" />
            <mxPoint x="386.8198051533948" y="242.67766952966383" as="targetPoint" />
          </mxGeometry>
        </mxCell>
        <mxCell id="eqHKp-PGuizW-vQHrf_t-50" value="采取奖惩措施" style="text;html=1;strokeColor=none;fillColor=none;align=center;verticalAlign=middle;whiteSpace=wrap;rounded=0;" vertex="1" parent="1">
          <mxGeometry x="470" y="325" width="60" height="30" as="geometry" />
        </mxCell>
        <mxCell id="eqHKp-PGuizW-vQHrf_t-51" value="" style="endArrow=none;html=1;rounded=0;entryX=0.5;entryY=0.5;entryDx=0;entryDy=0;entryPerimeter=0;exitX=1;exitY=0.5;exitDx=0;exitDy=0;" edge="1" parent="1" source="eqHKp-PGuizW-vQHrf_t-5" target="eqHKp-PGuizW-vQHrf_t-50">
          <mxGeometry width="50" height="50" relative="1" as="geometry">
            <mxPoint x="360" y="325" as="sourcePoint" />
            <mxPoint x="705" y="360" as="targetPoint" />
          </mxGeometry>
        </mxCell>
      </root>
    </mxGraphModel>
  </diagram>
</mxfile>
